PathFileType	3	(X/Y/Z)	RCH0000001 BBF 02.c3d
DataRate	CameraRate	NumFrames	NumMarkers	Units	OrigDataRate	OrigDataStartFrame	OrigNumFrames
100.0	100.0	12	23	mm	100.0	74	68
Frame#	Time	T2			T10			MAN			LASI			RASI			LPSI			RPSI			LPAT			LANK			LMED			LHEE			LTOE			RPAT			RANK			RMED			RHEE			RTOE			RTHI			LTHI			RTIB			LTIB			LKNE			RKNE			
		X1	Y1	Z1	X2	Y2	Z2	X3	Y3	Z3	X4	Y4	Z4	X5	Y5	Z5	X6	Y6	Z6	X7	Y7	Z7	X8	Y8	Z8	X9	Y9	Z9	X10	Y10	Z10	X11	Y11	Z11	X12	Y12	Z12	X13	Y13	Z13	X14	Y14	Z14	X15	Y15	Z15	X16	Y16	Z16	X17	Y17	Z17	X18	Y18	Z18	X19	Y19	Z19	X20	Y20	Z20	X21	Y21	Z21	X22	Y22	Z22	X23	Y23	Z23	

74	0.730	532.66644	31.53245	1209.14722	497.49838	31.81388	1000.19495	662.49750	28.76958	1161.86377	589.24957	136.53432	820.67902	581.91974	-92.48054	825.55908	462.86560	61.14396	892.48267	458.76306	-11.37725	889.13550	564.52386	102.67866	473.43759	502.53244	170.38271	137.05153	523.22333	96.33742	137.49254	458.58960	131.18112	122.90451	557.68909	159.48354	137.17563	594.18372	-46.27383	489.54950	492.25943	-106.46204	139.47820	518.81995	-35.22120	136.82361	454.19189	-63.44685	128.21695	552.11646	-98.96968	137.65436	533.51398	-169.00200	581.05499	498.64999	224.79100	608.63300	478.29300	-165.97501	316.31000	477.94800	230.24300	315.68900	495.14734	166.31068	450.51929	529.64294	-105.11325	456.00241	
75	0.740	532.57477	31.67525	1209.05737	497.55109	31.86552	1000.14056	662.23108	28.87391	1161.77747	589.32629	136.47766	820.64478	581.99957	-92.53979	825.56244	462.94330	61.07463	892.47833	458.85104	-11.44268	889.13867	564.57208	102.63255	473.42136	502.53363	170.37598	137.05490	523.22729	96.33171	137.48788	458.58731	131.17606	122.90658	557.68884	159.48053	137.17642	594.27045	-46.32523	489.54407	492.26538	-106.46873	139.48108	518.82507	-35.22704	136.82950	454.20724	-63.43739	128.22588	552.12103	-98.97440	137.65419	533.60602	-169.06200	581.04901	498.71899	224.73300	608.64001	478.35199	-166.00600	316.30899	477.96899	230.21500	315.70300	495.18854	166.27019	450.52307	529.72339	-105.15543	456.00363	
76	0.750	532.48486	31.81257	1208.96704	497.60458	31.91439	1000.08685	661.96881	28.97314	1161.69104	589.40216	136.42155	820.61090	582.07959	-92.59866	825.56500	463.02072	61.00541	892.47388	458.93887	-11.50831	889.14154	564.62018	102.58692	473.40524	502.53482	170.36928	137.05827	523.23132	96.32605	137.48325	458.58511	131.17096	122.90865	557.68860	159.47745	137.17720	594.35681	-46.37584	489.53860	492.27133	-106.47533	139.48389	518.83020	-35.23278	136.83524	454.22226	-63.42837	128.23466	552.12561	-98.97901	137.65398	533.69598	-169.12199	581.04303	498.78601	224.67599	608.64697	478.40900	-166.03600	316.30801	477.98999	230.18600	315.71701	495.22961	166.22990	450.52679	529.80365	-105.19716	456.00467	
77	0.760	532.39691	31.94442	1208.87622	497.65887	31.96048	1000.03375	661.71069	29.06729	1161.60461	589.47723	136.36595	820.57739	582.15985	-92.65711	825.56683	463.09781	60.93629	892.46936	459.02658	-11.57415	889.14398	564.66821	102.54178	473.38931	502.53598	170.36264	137.06166	523.23535	96.32043	137.47862	458.58301	131.16588	122.91071	557.68842	159.47426	137.17798	594.44281	-46.42566	489.53305	492.27728	-106.48182	139.48662	518.83521	-35.23840	136.84081	454.23694	-63.41977	128.24333	552.13019	-98.98351	137.65373	533.78802	-169.18100	581.03601	498.85199	224.61900	608.65399	478.46600	-166.06599	316.30701	478.01001	230.15800	315.73199	495.27048	166.18990	450.53049	529.88367	-105.23846	456.00546	
78	0.770	532.31073	32.07079	1208.78503	497.71396	32.00380	999.98126	661.45679	29.15634	1161.51807	589.55151	136.31088	820.54419	582.24042	-92.71516	825.56793	463.17462	60.86729	892.46466	459.11411	-11.64018	889.14618	564.71613	102.49712	473.37354	502.53714	170.35605	137.06506	523.23944	96.31485	137.47403	458.58099	131.16077	122.91277	557.68829	159.47099	137.17873	594.52850	-46.47470	489.52744	492.28320	-106.48820	139.48927	518.84021	-35.24390	136.84622	454.25125	-63.41161	128.25186	552.13470	-98.98788	137.65344	533.87903	-169.23900	581.03003	498.91699	224.56300	608.66101	478.52399	-166.09700	316.30499	478.03101	230.13100	315.74500	495.31137	166.15009	450.53409	529.96356	-105.27935	456.00598	
79	0.780	532.22644	32.19169	1208.69336	497.76987	32.04434	999.92944	661.20703	29.24030	1161.43152	589.62488	136.25633	820.51141	582.32117	-92.77281	825.56824	463.25116	60.79840	892.45984	459.20148	-11.70643	889.14795	564.76398	102.45296	473.35788	502.53830	170.34949	137.06847	523.24359	96.30932	137.46945	458.57910	131.15565	122.91482	557.68823	159.46764	137.17947	594.61377	-46.52295	489.52179	492.28912	-106.49450	139.49187	518.84509	-35.24929	136.85147	454.26520	-63.40387	128.26027	552.13922	-98.99215	137.65309	533.96997	-169.29700	581.02399	498.98199	224.50700	608.66699	478.58099	-166.12601	316.30399	478.05099	230.10201	315.75900	495.35205	166.11057	450.53760	530.04321	-105.31980	456.00632	
80	0.790	532.14398	32.30711	1208.60120	497.82657	32.08210	999.87823	660.96143	29.31918	1161.34485	589.69745	136.20232	820.47894	582.40216	-92.83006	825.56775	463.32736	60.72962	892.45496	459.28870	-11.77288	889.14941	564.81171	102.40927	473.34238	502.53943	170.34297	137.07188	523.24774	96.30383	137.46490	458.57727	131.15054	122.91687	557.68817	159.46420	137.18019	594.69867	-46.57042	489.51605	492.29501	-106.50069	139.49437	518.84998	-35.25457	136.85655	454.27878	-63.39656	128.26854	552.14368	-98.99631	137.65271	534.06097	-169.35400	581.01703	499.04700	224.45200	608.67297	478.63800	-166.15601	316.30301	478.07199	230.07500	315.77301	495.39267	166.07126	450.54108	530.12262	-105.35983	456.00647	
81	0.800	532.06342	32.41706	1208.50854	497.88403	32.11709	999.82770	660.71997	29.39296	1161.25818	589.76923	136.14882	820.44690	582.48346	-92.88689	825.56653	463.40329	60.66095	892.44995	459.37579	-11.83953	889.15057	564.85938	102.36607	473.32706	502.54056	170.33650	137.07532	523.25189	96.29838	137.46037	458.57553	131.14542	122.91891	557.68817	159.46068	137.18089	594.78314	-46.61709	489.51028	492.30090	-106.50677	139.49680	518.85474	-35.25974	136.86148	454.29202	-63.38968	128.27669	552.14813	-99.00034	137.65228	534.15198	-169.41100	581.01001	499.10901	224.39700	608.67902	478.69601	-166.18500	316.30099	478.09100	230.04700	315.78601	495.43320	166.03221	450.54446	530.20190	-105.39943	456.00638	
82	0.810	531.98468	32.52153	1208.41553	497.94232	32.14930	999.77777	660.48273	29.46165	1161.17139	589.84015	136.09584	820.41516	582.56494	-92.94333	825.56458	463.47891	60.59239	892.44476	459.46271	-11.90639	889.15137	564.90692	102.32336	473.31186	502.54169	170.33009	137.07877	523.25610	96.29297	137.45586	458.57391	131.14027	122.92096	557.68817	159.45706	137.18159	594.86731	-46.66298	489.50446	492.30676	-106.51276	139.49916	518.85950	-35.26478	136.86624	454.30490	-63.38323	128.28471	552.15259	-99.00427	137.65182	534.24298	-169.46600	581.00299	499.17099	224.34300	608.68402	478.75299	-166.21300	316.29999	478.11200	230.02000	315.79999	495.47363	165.99342	450.54782	530.28094	-105.43858	456.00604	
83	0.820	531.90778	32.62052	1208.32190	498.00143	32.17874	999.72852	660.24963	29.52525	1161.08447	589.91022	136.04340	820.38379	582.64667	-92.99936	825.56183	463.55423	60.52394	892.43951	459.54947	-11.97345	889.15186	564.95447	102.28113	473.29681	502.54282	170.32372	137.08223	523.26031	96.28761	137.45137	458.57239	131.13513	122.92300	557.68829	159.45335	137.18227	594.95111	-46.70808	489.49854	492.31259	-106.51865	139.50143	518.86414	-35.26972	136.87085	454.31741	-63.37721	128.29260	552.15698	-99.00809	137.65131	534.33398	-169.52200	580.99500	499.23401	224.28900	608.69000	478.80899	-166.24200	316.29901	478.13300	229.99400	315.81400	495.51392	165.95486	450.55103	530.35980	-105.47733	456.00555	
84	0.830	531.83270	32.71404	1208.22791	498.06131	32.20539	999.67987	660.02069	29.58376	1160.99744	589.97949	135.99147	820.35278	582.72864	-93.05499	825.55835	463.62927	60.45560	892.43414	459.63611	-12.04071	889.15198	565.00183	102.23938	473.28192	502.54391	170.31737	137.08569	523.26459	96.28229	137.44690	458.57092	131.12997	122.92503	557.68842	159.44957	137.18294	595.03448	-46.75240	489.49258	492.31845	-106.52444	139.50365	518.86877	-35.27454	136.87529	454.32959	-63.37162	128.30035	552.16138	-99.01180	137.65074	534.42499	-169.57600	580.98700	499.29501	224.23599	608.69501	478.86499	-166.26900	316.29700	478.15201	229.96600	315.82700	495.55411	165.91653	450.55420	530.43848	-105.51564	456.00476	
85	0.840	531.75952	32.80208	1208.13354	498.12198	32.22928	999.63184	659.79596	29.63718	1160.91052	590.04797	135.94006	820.32214	582.81091	-93.11021	825.55414	463.70398	60.38737	892.42871	459.72256	-12.10818	889.15173	565.04913	102.19812	473.26718	502.54501	170.31108	137.08917	523.26892	96.27701	137.44244	458.56958	131.12482	122.92706	557.68860	159.44569	137.18358	595.11755	-46.79593	489.48657	492.32425	-106.53014	139.50577	518.87329	-35.27925	136.87956	454.34140	-63.36646	128.30800	552.16571	-99.01538	137.65015	534.51599	-169.63000	580.97998	499.35400	224.18300	608.70001	478.92200	-166.29700	316.29599	478.17099	229.93900	315.84000	495.59421	165.87848	450.55731	530.51691	-105.55349	456.00378	
